<svg width="214" height="28" viewBox="0 0 214 28" fill="none" xmlns="http://www.w3.org/2000/svg">
<path fill-rule="evenodd" clip-rule="evenodd" d="M0.970703 9.03183V18.0636L9.44451 18.0267L17.9183 17.9898L18.5896 17.6627C18.9587 17.4828 19.4671 17.0805 19.7194 16.7688L20.178 16.2018L20.2264 13.3185C20.2603 11.3009 20.2209 10.3224 20.0956 10.0597C19.9037 9.65709 19.0607 9.10378 18.5962 9.09306C19.7866 8.59209 20.2672 8.20495 20.2196 4.90634C20.1816 2.28192 20.1503 1.98178 19.8633 1.50463C19.4915 0.886431 18.5836 0.291917 17.7565 0.125364C17.4313 0.0598157 13.5214 0.00486503 9.0679 0.00316417L0.970703 2.41369e-05V9.03183ZM30.7605 0.183586C29.907 0.452844 29.208 0.975268 28.8555 1.60786C28.5444 2.16613 28.5388 2.3145 28.5388 10.1157V18.0553H30.1959H31.853V14.9152V11.7752H38.1801H44.5072V14.9152V18.0553H46.1643H47.8214V10.2246C47.8214 4.65618 47.7713 2.26569 47.6477 1.94933C47.3766 1.25486 46.9579 0.816696 46.1922 0.425761L45.4864 0.0654416L38.4061 0.0353496C32.7388 0.0112759 31.2129 0.0408446 30.7605 0.183586ZM53.5008 0.163568C53.579 0.253582 55.3837 2.39614 57.5113 4.92491L61.3795 9.52272V13.789V18.0553H62.9613H64.5431V13.8159V9.57662L68.5352 4.85806C70.7309 2.26281 72.5273 0.108094 72.5273 0.0697592C72.5273 0.0314245 71.6291 0.000285805 70.5312 0.000547475L68.5352 0.00120165L65.8484 3.20522C64.3708 4.96744 63.1064 6.43894 63.0387 6.47518C62.9711 6.51155 61.6834 5.06949 60.1772 3.27064L57.4386 2.41369e-05H55.3986C53.7911 2.41369e-05 53.3885 0.0346954 53.5008 0.163568ZM76.7454 1.37379V2.74756H80.0596H83.3738V10.4014V18.0553H85.0309H86.688V10.4014V2.74756H90.0022H93.3164V1.37379V2.41369e-05H85.0309H76.7454V1.37379ZM100.246 9.02764V18.0553H101.903H103.56V9.02764V2.41369e-05H101.903H100.246V9.02764ZM111.846 9.02764V18.0553H113.503H115.16V14.1956V10.336L117.985 10.3379L120.809 10.34L123.897 14.1933L126.986 18.0465L129.05 18.0509L131.115 18.0553L127.572 13.5919C125.487 10.9652 124.063 9.05145 124.112 8.94129C124.157 8.83845 125.693 6.8635 127.525 4.55269C129.356 2.24175 130.89 0.272161 130.932 0.175605C130.995 0.0340412 130.621 0.00107081 128.998 0.00538837L126.986 0.0106218L123.913 3.86502L120.841 7.71929H118H115.16V3.85966V2.41369e-05H113.503H111.846V9.02764ZM208.24 1.85827C207.38 2.88036 206.529 3.98659 206.428 4.10669L208.384 6.55773L209.197 5.6012C210.562 3.99585 213.863 0.173618 213.983 0C213.983 0 213.406 2.41369e-05 211.827 2.41369e-05H209.803L208.24 1.85827ZM150.562 9.09306V18.0553H155.985H161.408V16.7469V15.4386H157.567H153.725V7.78471V0.130859H152.143H150.562V9.09306ZM168.488 8.05161C168.488 15.58 168.503 15.9963 168.775 16.4578C169.109 17.023 169.559 17.404 170.296 17.7456C170.79 17.9743 171.284 17.9898 178.054 17.9898C185.169 17.9898 185.295 17.9853 185.888 17.7081C186.644 17.3546 187.089 16.9442 187.387 16.324C187.589 15.905 187.62 14.7785 187.62 7.98515V0.130859H186.039H184.457V7.6277C184.457 13.2841 184.412 15.1631 184.276 15.2815C184.016 15.5071 172.092 15.5071 171.833 15.2815C171.696 15.1631 171.652 13.2841 171.652 7.6277V0.130859H170.07H168.488V8.05161ZM194.877 0.23592C194.904 0.293749 196.554 2.26857 198.542 4.62439C200.531 6.98033 202.175 8.95097 202.197 9.0037C202.218 9.05642 200.544 11.0998 198.477 13.5447L194.719 17.9898L196.547 18.0267C197.552 18.0471 198.451 18.0384 198.544 18.0072C198.637 17.9762 199.929 16.5037 201.415 14.7348C202.901 12.9659 204.184 11.5361 204.267 11.5576C204.35 11.5791 205.638 13.0485 207.129 14.8231L209.841 18.0496L211.835 18.0525L213.83 18.0553L211.377 15.1442C210.028 13.5431 206.63 9.51016 203.827 6.18198L198.73 0.130859H196.778C195.704 0.130859 194.849 0.17809 194.877 0.23592ZM16.8638 2.74468V7.72217H4.2849V5.23342V2.74468H16.8638ZM44.4723 5.92031L44.5127 9.02764H38.1828H31.853V5.97487C31.853 4.29573 31.899 2.88206 31.9552 2.83339C32.0112 2.78458 34.8415 2.76012 38.2446 2.77883L44.4319 2.81298L44.4723 5.92031ZM16.8638 10.336V15.2764H10.5744L4.2849 15.3106V12.8233V10.336H10.443C15.4982 10.336 16.8638 10.336 16.8638 10.336ZM180.39 22.6672L180.39 23.4849L178.952 23.4394C177.312 23.3874 176.888 23.4517 176.469 23.8153C176.206 24.044 176.171 24.2549 176.171 25.6496C176.171 27.1513 176.189 27.2408 176.544 27.5489C176.907 27.8643 176.969 27.8719 179.105 27.8602L181.293 27.8481V24.8487V21.8495H180.841H180.389L180.39 22.6672ZM172.255 22.3728C172.255 22.7217 172.305 22.7653 172.707 22.7653C173.108 22.7653 173.158 22.7217 173.158 22.3728C173.158 22.0239 173.108 21.9803 172.707 21.9803C172.305 21.9803 172.255 22.0239 172.255 22.3728ZM150.562 25.6531V27.8679H151.014H151.466C151.466 27.8679 151.47 28.6529 151.468 26.396C151.466 24.1391 151.449 24.3353 152.613 24.3353H153.575V23.8792V23.423L152.068 23.4307L150.562 23.4383V25.6531ZM156.332 23.7352C155.936 24.0313 155.906 24.1252 155.857 25.2466C155.792 26.7104 155.901 27.2668 156.322 27.6067C156.614 27.8433 156.854 27.8679 158.876 27.8679H161.107V27.479V27.0902L159.035 27.0538L156.964 27.0174L156.918 26.6066L156.872 26.1957L158.627 26.1474C160.655 26.1474 160.46 26.0362 160.655 25.8399C160.938 25.5542 160.836 23.7595 160.655 23.5503C160.429 23.2886 159.751 23.4307 158.491 23.4195C156.873 23.4195 156.726 23.4409 156.332 23.7352ZM164.49 23.7407C164.173 24.0156 164.12 24.1838 164.12 24.9107C164.12 26.0856 164.273 26.167 166.488 26.167H168.187V26.6249V27.0829H166.153H164.12V27.4754V27.8679H166.311C168.436 27.8679 168.513 27.8583 168.872 27.5467C169.181 27.2785 169.242 27.0987 169.242 26.4549C169.242 25.3362 169.113 25.2684 166.9 25.2229L165.099 25.1858V24.7933V24.4007L167.17 24.3644L169.242 24.328V23.8737V23.4195H167.051C164.925 23.4195 164.848 23.429 164.49 23.7407ZM172.255 25.6437V27.8679H172.707H173.158V25.6437V23.4195H172.707H172.255V25.6437ZM184.964 23.5726C184.445 23.7905 184.306 24.2584 184.306 25.7867C184.306 27.1399 184.328 27.2447 184.676 27.5467C185.035 27.8583 185.111 27.8679 187.237 27.8679H189.428V27.4754V27.0829H187.394H185.361V26.6365V26.1902L187.006 26.1458C188.503 26.1055 188.687 26.0731 189.04 25.7845C189.364 25.5199 189.428 25.3505 189.428 24.7645C189.428 24.1929 189.359 24.0018 189.058 23.7407C188.708 23.4364 188.599 23.42 186.987 23.4284C186.051 23.4332 185.141 23.4981 184.964 23.5726ZM192.441 25.653V27.8679H192.968H193.496V26.1016V24.3353H195.077H196.659V26.1016V27.8679H197.189H197.718L197.67 25.9532C197.622 24.047 197.62 24.0372 197.206 23.7276C196.807 23.4302 196.696 23.4173 194.615 23.4273L192.441 23.4379V25.653ZM201.004 23.8129L200.551 24.2062L200.601 25.7872C200.669 27.9192 200.595 27.8679 203.606 27.8679H205.849V27.479V27.0902L203.777 27.0538L201.706 27.0174L201.663 25.6764L201.62 24.3353H203.734H205.849V23.8774V23.4195H203.653H201.457L201.004 23.8129ZM209.138 23.8129L208.686 24.2062L208.736 25.7872C208.804 27.9192 208.729 27.8679 211.74 27.8679H213.983V27.479V27.0902L211.912 27.0538L209.841 27.0174L209.793 26.5922L209.746 26.167H211.192C212.915 26.167 213.547 25.9823 213.826 25.3959C214.098 24.8248 213.932 24.0758 213.453 23.7139C213.097 23.4453 212.911 23.4195 211.327 23.4195C209.599 23.4195 209.59 23.4211 209.138 23.8129ZM160.052 24.7933V25.2512H158.471H156.889V24.7933V24.3353H158.471H160.052V24.7933ZM180.314 25.7091V27.0174L178.77 27.0547L177.226 27.092V25.7091V24.3262L178.77 24.3635L180.314 24.4007V25.7091ZM188.496 24.7605L188.449 25.1858L186.905 25.223L185.361 25.2603V24.7978V24.3353H186.952H188.543L188.496 24.7605ZM212.901 24.7605L212.854 25.1858L211.309 25.223L209.765 25.2603V24.7978V24.3353H211.357H212.948L212.901 24.7605Z" fill="white"/>
</svg>
